<?xml version="1.0" encoding="UTF-8"?>
<svg width="32px" height="32px" viewBox="0 0 32 32" version="1.1" xmlns="http://www.w3.org/2000/svg" xmlns:xlink="http://www.w3.org/1999/xlink">
    <!-- Generator: Sketch 40.1 (33804) - http://www.bohemiancoding.com/sketch -->
    <title>next favicon blanco</title>
    <desc>Created with Sketch.</desc>
    <defs></defs>
    <g id="Page-1" stroke="none" stroke-width="1" fill="none" fill-rule="evenodd">
        <g id="next-favicon-blanco" fill="#FFFFFF">
            <g id="Page-1">
                <path d="M32,16 C32,24.8363636 24.8363636,32 16,32 C7.16363636,32 0,24.8363636 0,16 C0,7.16363636 7.16363636,0 16,0 C24.8363636,0 32,7.16363636 32,16 Z M20.4513455,15.3009455 C20.4513455,14.2740364 20.4251636,13.6296727 20.3480727,12.9853091 C20.0658909,10.7656727 18.3946182,9.42894545 15.4898909,9.42894545 C14.1778909,9.42894545 11.6484364,9.76203636 11.1306182,11.8144 L11.1306182,11.2442182 L11.1131636,11.2442182 C11.1146182,11.2078545 11.1335273,11.1773091 11.1335273,11.1394909 C11.1335273,10.1678545 10.3422545,9.38094545 9.36334545,9.38094545 C8.38589091,9.38094545 7.59316364,10.1678545 7.59316364,11.1394909 C7.59316364,11.1671273 7.60770909,11.1904 7.60916364,11.2180364 L7.59752727,11.2180364 L7.59752727,20.6594909 C7.59752727,20.6638545 7.59461818,20.6667636 7.59461818,20.6711273 C7.59461818,20.6754909 7.59752727,20.6784 7.59752727,20.6827636 L7.59752727,20.7074909 L7.60334545,20.7074909 C7.62370909,21.6602182 8.40043636,22.4296727 9.36625455,22.4296727 C10.3437091,22.4296727 11.1364364,21.6427636 11.1364364,20.6711273 C11.1364364,20.6682182 11.1349818,20.6667636 11.1349818,20.6653091 L11.1393455,20.6638545 L11.1451636,16.6609455 C11.1451636,12.7409455 12.5080727,11.7445818 14.2302545,11.7445818 C15.9524364,11.7445818 16.7495273,12.6522182 16.8528,13.9874909 C16.9037091,14.6333091 16.9037091,15.2296727 16.9037091,15.7547636 L16.9037091,20.6609455 L16.9037091,20.6624 L16.9037091,20.6653091 L16.9037091,20.7584 L16.9226182,20.7584 C16.9749818,21.6834909 17.7313455,22.4238545 18.6768,22.4238545 C19.6426182,22.4238545 20.4208,21.6544 20.4411636,20.6987636 L20.4513455,20.6987636 L20.4513455,15.3009455 Z M25.0612364,12.3634909 L25.0525091,12.3634909 C24.8896,12.1685818 24.6539636,12.0376727 24.3805091,12.0376727 C24.1070545,12.0376727 23.8714182,12.1685818 23.7070545,12.3634909 C23.5776,12.5176727 23.4903273,12.7096727 23.4903273,12.9278545 C23.4903273,13.1402182 23.5761455,13.3278545 23.7012364,13.4805818 L23.6925091,13.4878545 L25.3826909,15.9213091 L23.4772364,18.6544 L23.4816,18.6587636 C23.3914182,18.7984 23.3259636,18.9554909 23.3259636,19.1329455 C23.3259636,19.3249455 23.3986909,19.4922182 23.5005091,19.6362182 C23.6619636,19.8645818 23.9150545,20.0231273 24.2146909,20.0231273 C24.5157818,20.0231273 24.7674182,19.8645818 24.9288727,19.6362182 L24.9419636,19.6362182 L27.5921455,15.9213091 L25.0612364,12.3634909 Z" id="Combined-Shape"></path>
            </g>
        </g>
    </g>
</svg>