<?xml version="1.0" encoding="UTF-8"?>
<svg width="32px" height="32px" viewBox="0 0 32 32" version="1.1" xmlns="http://www.w3.org/2000/svg" xmlns:xlink="http://www.w3.org/1999/xlink">
    <!-- Generator: Sketch 40.1 (33804) - http://www.bohemiancoding.com/sketch -->
    <title>icon</title>
    <desc>Created with Sketch.</desc>
    <defs></defs>
    <g id="Page-1" stroke="none" stroke-width="1" fill="none" fill-rule="evenodd">
        <g id="icon">
            <g id="Page-1" transform="translate(1.000000, 1.000000)">
                <path d="M30,15 C30,23.2840909 23.2840909,30 15,30 C6.71590909,30 0,23.2840909 0,15 C0,6.71590909 6.71590909,0 15,0 C23.2840909,0 30,6.71590909 30,15" id="Fill-1" fill="#006DED"></path>
                <path d="M19.1731364,14.3446364 C19.1731364,13.3819091 19.1485909,12.7778182 19.0763182,12.1737273 C18.8117727,10.0928182 17.2449545,8.83963636 14.5217727,8.83963636 C13.2917727,8.83963636 10.9204091,9.15190909 10.4349545,11.076 L10.4349545,10.5414545 L10.4185909,10.5414545 C10.4199545,10.5073636 10.4376818,10.4787273 10.4376818,10.4432727 C10.4376818,9.53236364 9.69586364,8.79463636 8.77813636,8.79463636 C7.86177273,8.79463636 7.11859091,9.53236364 7.11859091,10.4432727 C7.11859091,10.4691818 7.13222727,10.491 7.13359091,10.5169091 L7.12268182,10.5169091 L7.12268182,19.3682727 C7.12268182,19.3723636 7.11995455,19.3750909 7.11995455,19.3791818 C7.11995455,19.3832727 7.12268182,19.386 7.12268182,19.3900909 L7.12268182,19.4132727 L7.12813636,19.4132727 C7.14722727,20.3064545 7.87540909,21.0278182 8.78086364,21.0278182 C9.69722727,21.0278182 10.4404091,20.2900909 10.4404091,19.3791818 C10.4404091,19.3764545 10.4390455,19.3750909 10.4390455,19.3737273 L10.4431364,19.3723636 L10.4485909,15.6196364 C10.4485909,11.9446364 11.7263182,11.0105455 13.3408636,11.0105455 C14.9554091,11.0105455 15.7026818,11.8614545 15.7995,13.1132727 C15.8472273,13.7187273 15.8472273,14.2778182 15.8472273,14.7700909 L15.8472273,19.3696364 L15.8472273,19.371 L15.8472273,19.3737273 L15.8472273,19.461 L15.8649545,19.461 C15.9140455,20.3282727 16.6231364,21.0223636 17.5095,21.0223636 C18.4149545,21.0223636 19.1445,20.301 19.1635909,19.4050909 L19.1731364,19.4050909 L19.1731364,14.3446364 Z" id="Fill-3" fill="#FFFFFF"></path>
                <path d="M23.4949091,11.5907727 L23.4867273,11.5907727 C23.334,11.4080455 23.1130909,11.2853182 22.8567273,11.2853182 C22.6003636,11.2853182 22.3794545,11.4080455 22.2253636,11.5907727 C22.104,11.7353182 22.0221818,11.9153182 22.0221818,12.1198636 C22.0221818,12.3189545 22.1026364,12.4948636 22.2199091,12.6380455 L22.2117273,12.6448636 L23.7962727,14.9262273 L22.0099091,17.4885 L22.014,17.4925909 L22.014,17.4925909 C21.9294545,17.6235 21.8680909,17.7707727 21.8680909,17.9371364 C21.8680909,18.1171364 21.9362727,18.2739545 22.0317273,18.4089545 C22.1830909,18.6230455 22.4203636,18.7716818 22.7012727,18.7716818 C22.9835455,18.7716818 23.2194545,18.6230455 23.3708182,18.4089545 L23.3830909,18.4089545 L25.8676364,14.9262273 L23.4949091,11.5907727 Z" id="Fill-5" fill="#FFFFFF"></path>
            </g>
        </g>
    </g>
</svg>