<?xml version="1.0" encoding="UTF-8"?>
<svg width="32px" height="32px" viewBox="0 0 32 32" version="1.1" xmlns="http://www.w3.org/2000/svg" xmlns:xlink="http://www.w3.org/1999/xlink">
    <!-- Generator: Sketch 40.1 (33804) - http://www.bohemiancoding.com/sketch -->
    <title>icon-o</title>
    <desc>Created with Sketch.</desc>
    <defs></defs>
    <g id="Page-1" stroke="none" stroke-width="1" fill="none" fill-rule="evenodd">
        <g id="icon-o" fill="#FFFFFF">
            <g id="Page-1" transform="translate(2.000000, 2.000000)">
                <path d="M28,14 C28,21.7318182 21.7318182,28 14,28 C6.26818182,28 0,21.7318182 0,14 C0,6.26818182 6.26818182,0 14,0 C21.7318182,0 28,6.26818182 28,14 Z M17.8949273,13.3883273 C17.8949273,12.4897818 17.8720182,11.9259636 17.8045636,11.3621455 C17.5576545,9.41996364 16.0952909,8.25032727 13.5536545,8.25032727 C12.4056545,8.25032727 10.1923818,8.54178182 9.73929091,10.3376 L9.73929091,9.83869091 L9.72401818,9.83869091 C9.72529091,9.80687273 9.74183636,9.78014545 9.74183636,9.74705455 C9.74183636,8.89687273 9.04947273,8.20832727 8.19292727,8.20832727 C7.33765455,8.20832727 6.64401818,8.89687273 6.64401818,9.74705455 C6.64401818,9.77123636 6.65674545,9.7916 6.65801818,9.81578182 L6.64783636,9.81578182 L6.64783636,18.0770545 C6.64783636,18.0808727 6.64529091,18.0834182 6.64529091,18.0872364 C6.64529091,18.0910545 6.64783636,18.0936 6.64783636,18.0974182 L6.64783636,18.1190545 L6.65292727,18.1190545 C6.67074545,18.9526909 7.35038182,19.6259636 8.19547273,19.6259636 C9.05074545,19.6259636 9.74438182,18.9374182 9.74438182,18.0872364 C9.74438182,18.0846909 9.74310909,18.0834182 9.74310909,18.0821455 L9.74692727,18.0808727 L9.75201818,14.5783273 C9.75201818,11.1483273 10.9445636,10.2765091 12.4514727,10.2765091 C13.9583818,10.2765091 14.6558364,11.0706909 14.7462,12.2390545 C14.7907455,12.8041455 14.7907455,13.3259636 14.7907455,13.7854182 L14.7907455,18.0783273 L14.7907455,18.0796 L14.7907455,18.0821455 L14.7907455,18.1636 L14.8072909,18.1636 C14.8531091,18.9730545 15.5149273,19.6208727 16.3422,19.6208727 C17.1872909,19.6208727 17.8682,18.9476 17.8860182,18.1114182 L17.8949273,18.1114182 L17.8949273,13.3883273 Z M21.9285818,10.8180545 L21.9209455,10.8180545 C21.7784,10.6475091 21.5722182,10.5329636 21.3329455,10.5329636 C21.0936727,10.5329636 20.8874909,10.6475091 20.7436727,10.8180545 C20.6304,10.9529636 20.5540364,11.1209636 20.5540364,11.3118727 C20.5540364,11.4976909 20.6291273,11.6618727 20.7385818,11.7955091 L20.7309455,11.8018727 L22.2098545,13.9311455 L20.5425818,16.3226 L20.5464,16.3264182 C20.4674909,16.4486 20.4102182,16.5860545 20.4102182,16.7413273 C20.4102182,16.9093273 20.4738545,17.0556909 20.5629455,17.1816909 C20.7042182,17.3815091 20.9256727,17.5202364 21.1878545,17.5202364 C21.4513091,17.5202364 21.6714909,17.3815091 21.8127636,17.1816909 L21.8242182,17.1816909 L24.1431273,13.9311455 L21.9285818,10.8180545 Z" id="Combined-Shape"></path>
            </g>
        </g>
    </g>
</svg>