<?xml version="1.0" encoding="UTF-8"?>
<svg width="121px" height="60px" viewBox="0 0 121 60" version="1.1" xmlns="http://www.w3.org/2000/svg" xmlns:xlink="http://www.w3.org/1999/xlink">
    <!-- Generator: Sketch 40.1 (33804) - http://www.bohemiancoding.com/sketch -->
    <title>logo-next-200x60</title>
    <desc>Created with Sketch.</desc>
    <defs>
        <polygon id="path-1" points="0.3056 30.5 28.2461 30.5 28.2461 0.9818 0.3056 0.9818 0.3056 30.5"></polygon>
        <polygon id="path-3" points="18.1625 37.4793 18.1625 0.4515 0.149 0.4515 0.149 37.4793 18.1625 37.4793"></polygon>
    </defs>
    <g id="Page-1" stroke="none" stroke-width="1" fill="none" fill-rule="evenodd">
        <g id="logo-next-200x60">
            <g id="Page-1" transform="translate(6.000000, 40.000000)" font-weight="300" font-size="12.83625" font-family="Aileron-Thin, Aileron" fill="#1D1D1B" font-style="condensed">
                <text id="Sistemas-integrados">
                    <tspan x="0" y="12.3357688">Sis</tspan>
                    <tspan x="15.2751375" y="12.3357688" letter-spacing="-0.0085575">t</tspan>
                    <tspan x="18.501315" y="12.3357688">emas in</tspan>
                    <tspan x="59.7570225" y="12.3357688" letter-spacing="-0.00884275">t</tspan>
                    <tspan x="62.9829147" y="12.3357688">egrados</tspan>
                </text>
            </g>
            <g id="Page-1" transform="translate(7.000000, 2.000000)">
                <path d="M70.19235,22.462025 L80.42085,9.574025 L80.42535,9.574025 C81.09585,8.638025 82.23885,8.017025 83.53485,8.017025 C85.59585,8.017025 87.26985,9.578525 87.26985,11.504525 C87.26985,12.103025 87.10335,12.656525 86.81985,13.147025 L86.82435,13.151525 L79.36335,22.462025 L87.16185,32.083025 L87.17085,32.114525 C87.55335,32.663525 87.76485,33.289025 87.76485,33.995525 C87.76485,35.921525 86.09985,37.483025 84.05235,37.483025 C82.74735,37.483025 81.60435,36.830525 80.94285,35.872025 L80.93835,35.890025 L70.19235,22.462025 Z" id="Fill-1" fill="#6CB8EB"></path>
                <path d="M26.7795,16.062575 C26.1855,11.040575 22.68,8.021075 16.578,8.021075 C13.8285,8.021075 8.55,8.777075 7.461,13.416575 L7.461,11.688575 L7.4385,11.688575 C7.4385,11.693075 7.443,11.697575 7.443,11.702075 C7.4295,10.478075 6.786,9.447575 5.868,8.777075 C5.256,8.331575 4.5405,8.016575 3.726,8.016575 C2.907,8.016575 2.196,8.331575 1.5795,8.777075 C0.6615,9.443075 0.027,10.469075 0.009,11.688575 C0.009,11.706575 0,11.720075 0,11.738075 C0,11.760575 0.009,11.774075 0.009,11.792075 L0.009,33.756575 L0.018,33.756575 L0.018,33.765575 C0.018,35.822075 1.683,37.487075 3.744,37.487075 C5.787,37.487075 7.4385,35.840075 7.461,33.801575 C7.461,33.788075 7.4655,33.779075 7.4655,33.765575 C7.4655,33.752075 7.461,33.738575 7.461,33.725075 L7.461,24.374075 C7.461,16.386575 10.3185,13.254575 13.9365,13.254575 C17.55,13.254575 19.224,15.306575 19.44,18.326075 C19.548,19.788575 19.548,21.134075 19.548,22.322075 L19.548,33.761075 C19.548,33.761075 19.548,33.761075 19.548,33.765575 L19.548,33.765575 C19.548,35.822075 21.2175,37.487075 23.274,37.487075 C25.3305,37.487075 26.9955,35.822075 26.9955,33.765575 L26.9955,21.296075 C26.9955,18.974075 26.9415,17.520575 26.7795,16.062575" id="Fill-3" fill="#1380EB"></path>
                <path d="M79.3989,22.488125 L69.1704,9.600125 L69.1659,9.600125 C68.4954,8.664125 67.3524,8.043125 66.0564,8.043125 C63.9954,8.043125 62.3214,9.604625 62.3214,11.530625 C62.3214,12.129125 62.4879,12.682625 62.7714,13.173125 L62.7669,13.177625 L70.2279,22.488125 L62.4294,32.109125 L62.4204,32.140625 C62.0379,32.689625 61.8264,33.315125 61.8264,34.021625 C61.8264,35.947625 63.4914,37.509125 65.5389,37.509125 C66.8439,37.509125 67.9869,36.856625 68.6484,35.898125 L68.6529,35.916125 L79.3989,22.488125 Z" id="Fill-5" fill="#2F96EB"></path>
                <path d="M48.0807,32.096525 C48.0312,32.110025 47.9862,32.119025 47.9367,32.132525 C47.9862,32.119025 48.0357,32.110025 48.0807,32.096525" id="Fill-7" fill="#1380EB"></path>
                <g id="Group-11" transform="translate(31.000000, 7.049175)">
                    <mask id="mask-2" fill="white">
                        <use xlink:href="#path-1"></use>
                    </mask>
                    <g id="Clip-10"></g>
                    <path d="M7.9286,12.6863 C7.9466,12.5648 7.9961,12.4838 8.0141,12.3623 L8.0006,12.3623 C8.6441,7.7228 11.0741,5.5628 14.5301,5.5628 C15.4391,5.5628 16.2446,5.7248 16.9556,6.0308 C19.3856,6.9713 21.2396,9.3158 21.6086,12.6863 L7.9286,12.6863 Z M14.4491,25.3853 C10.9931,25.3853 8.2931,23.5403 7.8071,17.6363 L24.8891,17.6363 C25.9196,17.6363 28.2326,16.9793 28.2461,14.2073 C27.8681,6.9893 23.3051,0.9818 14.8811,0.9818 C6.0836,0.9818 0.3056,7.2548 0.3056,15.8453 C0.3056,25.7048 6.4076,30.5018 14.2871,30.5018 C17.9681,30.5018 21.2486,29.5118 23.7146,27.5678 C23.7911,27.5048 23.8631,27.4418 23.9396,27.3833 C23.9801,27.3473 24.0296,27.3158 24.0701,27.2708 C24.5831,26.7173 24.9116,25.9883 24.9116,25.1738 C24.9116,24.6473 24.7316,24.1838 24.4931,23.7563 C22.4906,20.9888 19.6151,23.7338 19.6151,23.7338 C18.8006,24.4223 17.9096,24.8093 17.0816,25.0478 C17.0321,25.0613 16.9871,25.0703 16.9376,25.0838 C15.7721,25.3988 14.8136,25.3853 14.8136,25.3853 L14.4491,25.3853 Z" id="Fill-9" fill="#1380EB" mask="url(#mask-2)"></path>
                </g>
                <path d="M45.5292,12.611975 C46.3797,12.611975 47.1942,12.787475 47.9547,13.079975 C47.2437,12.773975 46.4382,12.611975 45.5292,12.611975" id="Fill-12" fill="#1380EB"></path>
                <path d="M45.5292,12.611975 C42.0732,12.611975 39.6432,14.771975 38.9997,19.411475 L39.0132,19.411475 C39.7377,15.005975 42.1677,12.611975 45.5292,12.611975" id="Fill-14" fill="#1380EB"></path>
                <g id="Group-18" transform="translate(89.500000, 0.049175)">
                    <mask id="mask-4" fill="white">
                        <use xlink:href="#path-3"></use>
                    </mask>
                    <g id="Clip-17"></g>
                    <path d="M15.728,13.3098 C17.087,13.1973 18.167,12.0498 18.167,10.6638 C18.167,9.2238 17.006,8.0448 15.5705,8.0178 L15.5705,8.0178 L12.0335,8.0178 L12.0335,4.2468 L12.0335,4.2423 L12.0335,4.1748 C12.0335,2.1183 10.355,0.4488 8.2985,0.4488 C6.377,0.4488 4.775,1.9293 4.577,3.8013 L4.577,4.1658 L4.577,4.1748 L4.577,4.1838 L4.586,8.0313 L2.7905,8.0313 L2.7905,8.0313 L2.7905,8.0313 L2.741,8.0313 C1.3055,8.0583 0.149,9.2283 0.149,10.6728 C0.149,12.1308 1.328,13.3098 2.7905,13.3098 L2.8175,13.3098 L4.577,13.3098 L4.577,27.5208 C4.577,28.2453 4.5815,28.8753 4.5905,29.4873 C4.757,31.2648 5.702,36.5478 11.1605,37.3848 C11.219,37.3938 11.2505,37.4028 11.309,37.4118 C11.7185,37.4388 12.11,37.4793 12.5735,37.4793 C13.622,37.4793 14.3555,37.3803 14.9225,37.1058 C15.035,37.0653 15.1385,37.0113 15.242,36.9528 C15.251,36.9483 15.2555,36.9438 15.26,36.9393 C16.0385,36.5163 16.5875,35.7153 16.5875,34.7658 C16.5875,33.4968 15.6335,32.4483 14.4095,32.2773 L14.396,32.2773 C13.577,32.2278 12.3035,31.9173 12.0875,29.1138 C12.0335,28.3578 12.0335,27.5478 12.0335,26.5758 L12.0335,18.3633 L12.0245,18.3633 L12.0245,13.3098 L15.728,13.3098 Z" id="Fill-16" fill="#1380EB" mask="url(#mask-4)"></path>
                </g>
            </g>
        </g>
    </g>
</svg>